<?xml version="1.0" encoding="UTF-8"?>
<svg id="Layer_2" data-name="Layer 2" xmlns="http://www.w3.org/2000/svg" viewBox="0 0 221 308.7">
  <defs>
    <style>
      .cls-1 {
        fill: #fff;
        stroke: #000;
        stroke-width: 1px;
      }

      .cls-2 {
        fill: #d40000;
      }
    </style>
  </defs>
  <g id="svg11376">
    <g id="g6771">
      <rect id="rect6826-9" class="cls-1" x=".5" y=".5" width="220" height="307.7" rx="10.52" ry="10.52"/>
      <path id="path6858-4" class="cls-2" d="M17.47,69.55c-2.13-3.52-4.37-6.94-7.17-9.87,2.8-2.92,5.04-6.35,7.17-9.87,2.13,3.52,4.37,6.94,7.17,9.87-2.8,2.92-5.04,6.35-7.17,9.87Z"/>
      <path id="path6860-1" class="cls-2" d="M161.52,80.13c-5.11-8.45-10.49-16.67-17.21-23.68,6.72-7.02,12.1-15.23,17.21-23.68,5.11,8.45,10.49,16.67,17.21,23.68-6.72,7.02-12.1,15.23-17.21,23.68Z"/>
      <path id="path6862-0" class="cls-2" d="M203.53,258.88c-2.13-3.52-4.37-6.94-7.17-9.87,2.8-2.92,5.04-6.35,7.17-9.87,2.13,3.52,4.37,6.94,7.17,9.87-2.8,2.92-5.04,6.35-7.17,9.87Z"/>
      <path id="path6864-5" class="cls-2" d="M59.48,80.13c-5.11-8.45-10.49-16.67-17.21-23.68,6.72-7.02,12.1-15.23,17.21-23.68,5.11,8.45,10.49,16.67,17.21,23.68-6.72,7.02-12.1,15.23-17.21,23.68Z"/>
      <path id="path6870-5" class="cls-2" d="M110.5,129.06c-5.11-8.45-10.49-16.67-17.21-23.68,6.72-7.02,12.1-15.23,17.21-23.68,5.11,8.45,10.49,16.67,17.21,23.68-6.72,7.02-12.1,15.23-17.21,23.68Z"/>
      <path id="path6874-1" class="cls-2" d="M59.48,178c-5.11-8.45-10.49-16.67-17.21-23.68,6.72-7.02,12.1-15.23,17.21-23.68,5.11,8.45,10.49,16.67,17.21,23.68-6.72,7.02-12.1,15.23-17.21,23.68Z"/>
      <path id="path6876-6" class="cls-2" d="M161.52,178.01c-5.11-8.45-10.49-16.67-17.21-23.68,6.72-7.02,12.1-15.23,17.21-23.68,5.11,8.45,10.49,16.67,17.21,23.68-6.72,7.02-12.1,15.23-17.21,23.68Z"/>
      <path id="path6880-5" class="cls-2" d="M59.48,275.94c-5.11-8.45-10.49-16.67-17.21-23.68,6.72-7.02,12.1-15.23,17.21-23.68,5.11,8.45,10.49,16.67,17.21,23.68-6.72,7.02-12.1,15.23-17.21,23.68Z"/>
      <path id="path6882-9" class="cls-2" d="M161.52,275.94c-5.11-8.45-10.49-16.67-17.21-23.68,6.72-7.02,12.1-15.23,17.21-23.68,5.11,8.45,10.49,16.67,17.21,23.68-6.72,7.02-12.1,15.23-17.21,23.68Z"/>
      <path id="path25-43-4-8-8" class="cls-2" d="M12.47,46.72c2.14-11.32,4.42-19.82,10.39-29.05h-12.15v3.97h-3.23v-7.49h17.77l2.19,3.51c-6.35,6.94-12.16,29.37-11.13,29.05h-3.85Z"/>
      <path id="path25-7-0-7-6" class="cls-2" d="M208.53,261.98c-2.14,11.32-4.42,19.82-10.39,29.05h12.15v-3.97h3.23v7.49h-17.77l-2.19-3.51c6.35-6.94,12.16-29.37,11.13-29.05h3.85Z"/>
    </g>
  </g>
</svg>