<?xml version="1.0" encoding="UTF-8"?>
<svg id="Layer_2" xmlns="http://www.w3.org/2000/svg" viewBox="0 0 221 308.7" data-ctp-normalized="true">
  <defs>
    
  </defs>
  <g id="svg11376">
    <g id="g6746">
      <rect id="rect6690-8" x=".5" y=".5" width="220" height="307.7" rx="10.52" ry="10.52" style="fill: #fff; stroke: #000; stroke-width: 1px;"  data-card-boundary="true"/>
      <path id="path6722-9" d="M17.47,69.55c-2.13-3.52-4.37-6.94-7.17-9.87,2.8-2.92,5.04-6.35,7.17-9.87,2.13,3.52,4.37,6.94,7.17,9.87-2.8,2.92-5.04,6.35-7.17,9.87Z" style="fill: #d40000;" />
      <path id="path6724-6" d="M161.52,80.13c-5.11-8.45-10.49-16.67-17.21-23.68,6.72-7.02,12.1-15.23,17.21-23.68,5.11,8.45,10.49,16.67,17.21,23.68-6.72,7.02-12.1,15.23-17.21,23.68Z" style="fill: #d40000;" />
      <path id="path6726-3" d="M203.53,258.88c-2.13-3.52-4.37-6.94-7.17-9.87,2.8-2.92,5.04-6.35,7.17-9.87,2.13,3.52,4.37,6.94,7.17,9.87-2.8,2.92-5.04,6.35-7.17,9.87Z" style="fill: #d40000;" />
      <path id="path6728-7" d="M59.48,80.13c-5.11-8.45-10.49-16.67-17.21-23.68,6.72-7.02,12.1-15.23,17.21-23.68,5.11,8.45,10.49,16.67,17.21,23.68-6.72,7.02-12.1,15.23-17.21,23.68Z" style="fill: #d40000;" />
      <path id="path6736-0" d="M110.5,178.03c-5.11-8.45-10.49-16.67-17.21-23.68,6.72-7.02,12.1-15.23,17.21-23.68,5.11,8.45,10.49,16.67,17.21,23.68-6.72,7.02-12.1,15.23-17.21,23.68Z" style="fill: #d40000;" />
      <path id="path6744-9" d="M59.48,275.94c-5.11-8.45-10.49-16.67-17.21-23.68,6.72-7.02,12.1-15.23,17.21-23.68,5.11,8.45,10.49,16.67,17.21,23.68-6.72,7.02-12.1,15.23-17.21,23.68Z" style="fill: #d40000;" />
      <path id="path6746-2" d="M161.52,275.94c-5.11-8.45-10.49-16.67-17.21-23.68,6.72-7.02,12.1-15.23,17.21-23.68,5.11,8.45,10.49,16.67,17.21,23.68-6.72,7.02-12.1,15.23-17.21,23.68Z" style="fill: #d40000;" />
      <path id="path21-9-8-2-7" d="M7.22,38.29l3.19-.03c.61,1.97,1.95,3.96,3.78,4.52,5.16,1.24,8.48-1.71,9.58-5.1,1.33-4.11-.03-9.89-3.58-11.94-2.94-1.7-7.32-.27-9.33,3.37l-2.23-1.39,1.2-13.56h14.59v3.2h-11.82l-.19,5.65c2.54-1.82,6.45-1.8,9-.52,4.82,2.34,7.05,7.67,6.12,13.95-1.3,6.24-4.16,9.78-10.61,10.29-7.18.07-9.71-4.97-9.68-8.43h0Z" style="fill: #d40000;" />
      <path id="path21-3-0-8-6" d="M213.78,270.41l-3.19.03c-.61-1.97-1.95-3.96-3.78-4.52-5.16-1.24-8.48,1.71-9.58,5.1-1.33,4.11.03,9.89,3.58,11.94,2.94,1.7,7.32.27,9.33-3.37l2.23,1.39-1.2,13.56h-14.59v-3.2h11.82l.19-5.65c-2.54,1.82-6.45,1.8-9,.52-4.82-2.34-7.05-7.67-6.12-13.95,1.3-6.24,4.16-9.78,10.61-10.29,7.18-.07,9.71,4.97,9.68,8.43h0Z" style="fill: #d40000;" />
    </g>
  </g>
</svg>
